<svg id="Isolation_Mode" data-name="Isolation Mode" xmlns="http://www.w3.org/2000/svg" viewBox="0 0 131.77 39.65"><defs><style>.cls-1{fill-rule:evenodd;}.cls-2{fill:#010101;}</style></defs><g id="_13_n" data-name="13_n"><path id="Fill-1" class="cls-1" d="M36,31.32A2.35,2.35,0,0,1,35.13,33l-7.81,5.22a1.11,1.11,0,0,1-.19.09v-30A2.34,2.34,0,0,1,28,6.64l7-4.68a1.12,1.12,0,0,1,.61-.24c.34,0,.38.53.38.76Zm-10.2,6.19L4.66,7.22a1.91,1.91,0,0,1,.54-.58L13,1.42a.83.83,0,0,1,1.13.22l11.7,16.73ZM13.2,31.32A2.35,2.35,0,0,1,12.29,33l-7,4.69c-.3.2-.59.28-.74.2a.9.9,0,0,1-.24-.73V8.94L13.2,21.68ZM35.66.43a2.38,2.38,0,0,0-1.32.45l-7,4.68a3.61,3.61,0,0,0-1.48,2.77v7.79L15.19.9a2.12,2.12,0,0,0-2.9-.55L4.48,5.56A3.52,3.52,0,0,0,3.32,7h0A3.27,3.27,0,0,0,3,8.33V37.17A2,2,0,0,0,3.92,39a1.6,1.6,0,0,0,.76.18A2.4,2.4,0,0,0,6,38.77l7-4.69a3.61,3.61,0,0,0,1.48-2.76V23.53L25.14,38.75a2.06,2.06,0,0,0,1.17.82h0a2.1,2.1,0,0,0,.56.08A2,2,0,0,0,28,39.3l7.82-5.22a3.61,3.61,0,0,0,1.48-2.76V2.48c0-1.42-.84-2-1.67-2Z" transform="translate(-3 0)"/></g><path class="cls-2" d="M57.13,12h2.55c.12.48.26,1,.42,1.6l.51,1.86c.17.65.36,1.32.55,2l.57,2.05q.33,1.09.63,2.13c.2.69.38,1.33.56,1.91s.33,1.08.46,1.5V23.69c0-.47,0-1,0-1.43s0-1,0-1.49V19.24c0-.46,0-.94,0-1.44s0-1,0-1.48,0-1,0-1.51,0-1,0-1.53,0-1,0-1.54h1.65c0,.46,0,1,0,1.54s0,1.19,0,1.84,0,1.34,0,2.06,0,1.44,0,2.17v2.12c0,.7,0,1.39,0,2.08s0,1.33,0,2,0,1.22,0,1.76l-2.47.18c-.14-.56-.3-1.15-.47-1.77l-.54-1.95-.57-2-.57-2-.43-1.46-.41-1.38-.38-1.26c-.13-.4-.25-.78-.37-1.13v1.15c0,.42,0,.86,0,1.32s0,1,0,1.46V20c0,.45,0,.92,0,1.4s0,1,0,1.46,0,1,0,1.52,0,1,0,1.56,0,1.06,0,1.58l-1.58,0c0-.5,0-1,0-1.63s0-1.21,0-1.87,0-1.34,0-2V19.79c0-.73,0-1.45,0-2.16s0-1.41,0-2.08,0-1.31,0-1.92S57.15,12.48,57.13,12Z" transform="translate(-3 0)"/><path class="cls-2" d="M68.77,27.58c0-.72,0-1.38,0-2s0-1.28,0-2,0-1.54,0-2.36,0-1.59,0-2.34c0-.94,0-1.82,0-2.64s0-1.54,0-2.16,0-1.27,0-2l1.69.2c0,.57,0,1.1,0,1.56s0,1,0,1.58,0,1.16,0,1.75,0,1.13,0,1.65,0,1.13,0,1.86,0,1.47,0,2.24,0,1.49,0,2.17,0,1.43,0,2.26Zm.7-13.86-.7-1.63,6.29.14V13.7Zm-.7,13.86,1-1.56,5.59.11v1.34ZM69.63,23v-1.5l5.63.07,0,1.34Z" transform="translate(-3 0)"/><path class="cls-2" d="M77.09,12.05H83l1.21,0h1.3l.07,1.45H84.35l-1.14,0h-2l-.85,0-1.09,0c-.38,0-.74,0-1.09,0l-1.15,0ZM80.3,27.43c0-.22,0-.58,0-1.07s0-1.05.06-1.69,0-1.3,0-2,0-1.34,0-2,0-1.17,0-1.63c0-.64,0-1.35,0-2.12s0-1.5,0-2.19,0-1.48,0-2.38l1.76,0c0,.47,0,.92,0,1.34s0,.91,0,1.48,0,1.2,0,1.89,0,1.41,0,2.16,0,1.51,0,2.29,0,1.51,0,2.22,0,1.33,0,1.89,0,1.16,0,1.81Z" transform="translate(-3 0)"/><path class="cls-2" d="M87.89,27.6c0-.83,0-1.6,0-2.32s0-1.51,0-2.39,0-1.8,0-2.74V17.26c0-1,0-1.88,0-2.71s0-1.75,0-2.76l1.72.2c0,.77,0,1.48-.07,2.11s0,1.31,0,2,0,1.45-.06,2.15,0,1.3,0,1.81,0,1.12,0,1.76,0,1.29,0,1.94,0,1.24,0,1.78,0,1.14,0,1.8Zm2.46.09h-.78l-.82,0-.86,0,.75-1.45q.63.08,1.26.12c.42,0,.81.06,1.18.06a6.22,6.22,0,0,0,1.36-.13,1.89,1.89,0,0,0,1-.5,1.38,1.38,0,0,0,.35-1,1.65,1.65,0,0,0-.24-.89,1.54,1.54,0,0,0-.87-.6A5.77,5.77,0,0,0,90.79,23h-.46l-.71,0a3.2,3.2,0,0,0-.5,0L89,21.71a14.77,14.77,0,0,1,3.74.3,3.52,3.52,0,0,1,1.94,1,2.59,2.59,0,0,1,.57,1.72,2.47,2.47,0,0,1-.65,1.84,3.37,3.37,0,0,1-1.76.87A12,12,0,0,1,90.35,27.69Zm-1.23-4.86L89,21.71a8,8,0,0,0,2.1-.24,2.92,2.92,0,0,0,2.2-2.17,7.74,7.74,0,0,0,.25-2.15,8.26,8.26,0,0,0-.28-2.4,2.35,2.35,0,0,0-1-1.34A3.48,3.48,0,0,0,90.53,13c-.3,0-.61,0-1,.05s-.71.09-1.11.17L88,11.79c.46,0,.89-.08,1.29-.1s.79,0,1.16,0a6.53,6.53,0,0,1,2.72.48,2.92,2.92,0,0,1,1.52,1.65,9,9,0,0,1,.48,3.31,7.3,7.3,0,0,1-.41,2.61,4.52,4.52,0,0,1-1.2,1.78,4.93,4.93,0,0,1-1.89,1A8.8,8.8,0,0,1,89.12,22.83Z" transform="translate(-3 0)"/><path class="cls-2" d="M98.49,27.58c0-.51,0-1.11,0-1.79s0-1.41,0-2.18l0-2.32c0-.78,0-1.51,0-2.2s0-1.37,0-2.06,0-1.33,0-2,0-1.2,0-1.71,0-.95,0-1.3l1.76-.13c0,.4,0,.83,0,1.31s0,1,0,1.5l0,1.55c0,.51,0,1,0,1.47s0,.9,0,1.28v1.33c0,.52,0,1.08,0,1.68s0,1.22,0,1.85,0,1.24,0,1.83,0,1.12,0,1.62Zm0,0,1-1.58,5.59.06v1.35Z" transform="translate(-3 0)"/><path class="cls-2" d="M111.1,27.69a4.09,4.09,0,0,1-1.74-.33,2.77,2.77,0,0,1-1.12-.93,4.19,4.19,0,0,1-.61-1.41,8,8,0,0,1-.18-1.75c0-.51,0-1.08,0-1.72s0-1.26,0-1.89V16c0-.63,0-1.26,0-1.9s0-1.29-.06-2l1.72,0c0,.49,0,1-.05,1.53l0,1.6c0,.52,0,1,0,1.5s0,.91,0,1.29,0,.87,0,1.34,0,.93,0,1.38v2.1a8.21,8.21,0,0,0,.18,1.83,2.3,2.3,0,0,0,.66,1.18,1.91,1.91,0,0,0,1.31.42,1.76,1.76,0,0,0,1.07-.29,2,2,0,0,0,.64-.74,3.69,3.69,0,0,0,.32-1,8,8,0,0,0,.08-1.09c0-.15,0-.46,0-.92s0-1,0-1.75v-2.4c0-.93,0-1.79,0-2.56s0-1.46,0-2.07,0-1.14,0-1.59l1.68,0c0,.48,0,1,0,1.4s0,.9,0,1.37,0,1,0,1.54,0,1.21,0,1.94c0,1.25,0,2.31,0,3.2v1.84a8.69,8.69,0,0,1-.14,1.48,4.67,4.67,0,0,1-.54,1.46,2.86,2.86,0,0,1-1.11,1.1A3.69,3.69,0,0,1,111.1,27.69Z" transform="translate(-3 0)"/><path class="cls-2" d="M118.58,27.58q0-1.08,0-2c0-.6,0-1.28,0-2s0-1.54,0-2.36,0-1.59,0-2.34c0-.94,0-1.82,0-2.64s0-1.54,0-2.16,0-1.27,0-2l1.69.2c0,.57,0,1.1,0,1.56s0,1,0,1.58,0,1.16,0,1.75,0,1.13,0,1.65,0,1.13,0,1.86,0,1.47,0,2.24,0,1.49,0,2.17,0,1.43,0,2.26Zm.7-13.86-.7-1.63,6.29.14V13.7Zm-.7,13.86,1-1.56,5.59.11v1.34Zm.85-4.57v-1.5l5.64.07,0,1.34Z" transform="translate(-3 0)"/><path class="cls-2" d="M127.51,12.23l.7,0h2.95l1.16,0,1.05,0h1.16l.06,1.59-1,2c-.33.71-.68,1.43-1,2.16l-1,2.24c-.3.63-.59,1.27-.88,1.91s-.59,1.28-.87,1.92L128.94,26h2.48l1.16,0,1,0h1.16v1.58h-1l-.92,0-.92,0h-3.46l-1.27,0L127.13,26l1.45-3c.49-1,1-2.07,1.42-3.08s1-2.27,1.49-3.32l1.26-2.8H129.5l-1,0-1,0Z" transform="translate(-3 0)"/></svg>