<?xml version="1.0" encoding="utf-8"?>
<!-- Generator: Adobe Illustrator 17.0.0, SVG Export Plug-In . SVG Version: 6.00 Build 0)  -->
<!DOCTYPE svg PUBLIC "-//W3C//DTD SVG 1.1//EN" "http://www.w3.org/Graphics/SVG/1.1/DTD/svg11.dtd">
<svg version="1.1" id="Layer_1" xmlns="http://www.w3.org/2000/svg" xmlns:xlink="http://www.w3.org/1999/xlink" x="0px" y="0px"
	 width="12.42px" height="7.801px" viewBox="0 0 12.42 7.801" enable-background="new 0 0 12.42 7.801" xml:space="preserve">
<g>
	<g>
		<g>
			<path fill="#7F7F7F" d="M12.278,3.455C12.278,3.455,12.278,3.455,12.278,3.455L9.743,0.183c-0.19-0.245-0.497-0.244-0.686,0.002
				C8.867,0.432,8.868,0.83,9.058,1.075l1.702,2.196H0.485C0.217,3.271,0,3.553,0,3.9c0,0.347,0.217,0.629,0.485,0.629H10.76
				L9.058,6.726c-0.19,0.245-0.191,0.643-0.002,0.89c0.189,0.246,0.496,0.247,0.686,0.002l2.535-3.271c0,0,0,0,0-0.001
				C12.468,4.1,12.468,3.7,12.278,3.455z"/>
		</g>
	</g>
</g>
</svg>
