<?xml version="1.0" encoding="utf-8"?>
<!-- Generator: Adobe Illustrator 17.0.0, SVG Export Plug-In . SVG Version: 6.00 Build 0)  -->
<!DOCTYPE svg PUBLIC "-//W3C//DTD SVG 1.1//EN" "http://www.w3.org/Graphics/SVG/1.1/DTD/svg11.dtd">
<svg version="1.1" id="Capa_1" xmlns="http://www.w3.org/2000/svg" xmlns:xlink="http://www.w3.org/1999/xlink" x="0px" y="0px"
	 width="24.063px" height="24.063px" viewBox="101.718 219.967 24.063 24.063"
	 enable-background="new 101.718 219.967 24.063 24.063" xml:space="preserve">
<path fill="#FFFFFF" d="M113.75,219.967c-6.634,0-12.032,5.398-12.032,12.032s5.398,12.032,12.032,12.032
	c6.634,0,12.032-5.398,12.032-12.032S120.384,219.967,113.75,219.967z"/>
<path fill="#00AEC5" d="M120.474,228.832l-7.689,7.629c-0.452,0.452-1.176,0.482-1.659,0.03l-4.071-3.709
	c-0.482-0.452-0.513-1.206-0.09-1.689c0.452-0.482,1.206-0.513,1.689-0.06l3.227,2.955l6.875-6.875c0.482-0.482,1.236-0.482,1.719,0
	C120.957,227.596,120.957,228.35,120.474,228.832z"/>
</svg>
